<?xml version="1.0" standalone="no"?><!DOCTYPE svg PUBLIC "-//W3C//DTD SVG 20010904//EN" "http://www.w3.org/TR/2001/REC-SVG-20010904/DTD/svg10.dtd"><svg xmlns="http://www.w3.org/2000/svg" version="1.0" width="2400.000000pt" height="2550.000000pt" viewBox="0 0 2400.000000 2550.000000" preserveAspectRatio="xMidYMid meet">

<g transform="translate(0.000000,2550.000000) scale(0.100000,-0.100000)" fill="#d90000" stroke="none">
<path d="M5900 23329 l-5885 -2098 3 -38 c4 -37 1789 -15510 1794 -15546 2 -13 1439 -816 4993 -2789 2745 -1524 4995 -2771 5001 -2771 5 0 986 540 2180 1200 1193 660 2981 1650 3974 2199 993 549 2298 1270 2900 1603 l1095 606 297 2365 c163 1301 603 4803 977 7782 375 2980 681 5428 681 5442 0 18 -8 27 -32 36 -292 104 -12064 4110 -12076 4109 -9 -1 -2665 -945 -5902 -2100z m9771 -9040 c2113 -4496 3843 -8184 3846 -8195 5 -21 3 -21 -129 -18 -73 3 -662 14 -1308 25 -646 11 -1176 22 -1178 24 -2 2 -363 833 -801 1847 -439 1014 -803 1853 -810 1866 l-12 22 -3291 -2 -3292 -3 -732 -1829 c-402 -1007 -736 -1837 -741 -1845 -8 -13 -150 -17 -1029 -32 -560 -9 -1178 -20 -1371 -24 l-353 -6 19 43 c36 84 7313 16273 7323 16291 5 10 11 17 14 15 2 -2 1732 -3683 3845 -8179z"/>
<path d="M11812 17163 c-12 -32 -501 -1194 -1085 -2583 l-1063 -2525 1163 -3 c640 -1 1687 -1 2327 0 l1163 3 -1235 2583 c-679 1420 -1238 2582 -1241 2582 -3 0 -16 -26 -29 -57z"/>
</g>
</svg>